<svg width="16" height="15" viewBox="0 0 16 15" fill="none" xmlns="http://www.w3.org/2000/svg">
<path id="Vector" d="M10.0007 14.1663H4.53398C3.41388 14.1663 2.85383 14.1663 2.426 13.9484C2.04968 13.7566 1.74372 13.4506 1.55197 13.0743C1.33398 12.6465 1.33398 12.0864 1.33398 10.9663V4.03301C1.33398 2.9129 1.33398 2.35285 1.55197 1.92503C1.74372 1.5487 2.04968 1.24274 2.426 1.05099C2.85383 0.833008 3.41388 0.833008 4.53398 0.833008H5.1766C5.42248 0.833008 5.54542 0.833008 5.65884 0.845999C6.25063 0.913783 6.78142 1.24182 7.1067 1.74083C7.16905 1.83647 7.22403 1.94643 7.33398 2.16634V2.16634C7.44394 2.38626 7.49892 2.49622 7.56127 2.59186C7.88655 3.09086 8.41733 3.4189 9.00913 3.48668C9.12255 3.49967 9.24549 3.49967 9.49136 3.49967H10.6672C11.2873 3.49967 11.5974 3.49967 11.8517 3.56786C12.5418 3.75281 13.0808 4.29183 13.2658 4.98191C13.334 5.2363 13.334 5.54637 13.334 6.1665V6.1665M4.00065 14.1667L4.88833 8.84059C5.04666 7.89062 5.12582 7.41564 5.36285 7.0592C5.57179 6.745 5.86535 6.49632 6.20962 6.34187C6.60018 6.16667 7.08172 6.16667 8.04479 6.16667H12.8157C13.6821 6.16667 14.1153 6.16667 14.4235 6.34343C14.6939 6.49854 14.9014 6.74351 15.0099 7.03575C15.1336 7.36878 15.0624 7.79609 14.92 8.65072L14.4463 11.4927C14.288 12.4427 14.2088 12.9177 13.9718 13.2741C13.7628 13.5883 13.4693 13.837 13.125 13.9915C12.7345 14.1667 12.2529 14.1667 11.2898 14.1667H4.00065Z" stroke="#1F1F1F" stroke-linecap="round" stroke-linejoin="round"/>
</svg>
