<svg width="16" height="17" viewBox="0 0 16 17" fill="none" xmlns="http://www.w3.org/2000/svg">
<g id="basic / loading-trolley" clip-path="url(#clip0_2255_21821)">
<path id="Vector" d="M10.0002 15.1667V10.5C10.0002 9.87874 10.0002 9.56812 9.89867 9.32309C9.76334 8.99638 9.50378 8.73682 9.17707 8.60149C8.93205 8.5 8.62142 8.5 8.00016 8.5V8.5C7.37891 8.5 7.06828 8.5 6.82325 8.60149C6.49655 8.73682 6.23698 8.99638 6.10166 9.32309C6.00016 9.56812 6.00016 9.87874 6.00016 10.5V15.1667M4.66846 3.16536L3.33512 4.23203C2.60007 4.82008 2.23254 5.1141 1.96799 5.47905C1.73363 5.80235 1.55926 6.16514 1.45321 6.55011C1.3335 6.98467 1.3335 7.45534 1.3335 8.39667V9.83333C1.3335 11.7002 1.3335 12.6336 1.69681 13.3466C2.01639 13.9738 2.52632 14.4838 3.15353 14.8034C3.86657 15.1667 4.79999 15.1667 6.66683 15.1667H9.3335C11.2003 15.1667 12.1338 15.1667 12.8468 14.8034C13.474 14.4838 13.9839 13.9738 14.3035 13.3466C14.6668 12.6336 14.6668 11.7002 14.6668 9.83333V8.39667C14.6668 7.45534 14.6668 6.98467 14.5471 6.55011C14.4411 6.16514 14.2667 5.80235 14.0323 5.47905C13.7678 5.1141 13.4003 4.82008 12.6652 4.23203L11.3319 3.16537C10.1428 2.21412 9.54828 1.73849 8.88893 1.55609C8.30734 1.39519 7.69298 1.39519 7.11139 1.55609C6.45205 1.73849 5.85752 2.21412 4.66846 3.16536Z" stroke="#1F1F1F" stroke-linecap="round" stroke-linejoin="round"/>
</g>
<defs>
<clipPath id="clip0_2255_21821">
<rect width="16" height="16" fill="white" transform="translate(0 0.5)"/>
</clipPath>
</defs>
</svg>
