<svg width="47" height="31" viewBox="0 0 47 31" fill="none" xmlns="http://www.w3.org/2000/svg">
<path id="Vector" d="M37.7085 22.1606C33.1798 26.1606 29.674 26.2756 27.9844 25.9767C27.5476 25.9308 27.1913 25.8273 26.9039 25.6664C26.8809 25.6664 26.8579 25.6434 26.8579 25.6434C26.2717 25.2986 25.9843 24.8043 25.8464 24.448C25.1797 23.2411 24.9039 21.1491 27.8005 18.3215C29.2947 16.8732 31.1108 16.0571 32.9039 15.6319C33.8005 15.4135 34.8005 15.264 35.9269 15.2296C35.9844 15.2296 36.0419 15.2296 36.0878 15.2296C38.6626 15.1376 40.6396 15.6089 40.6396 15.6089C40.6856 19.2756 37.72 22.1606 37.72 22.1606M45.8235 9.73528C45.789 9.47091 45.7431 9.21803 45.6971 8.96516C45.6741 8.85021 45.6626 8.79274 45.6626 8.79274C44.7431 4.57433 41.6396 1.56282 36.9844 0.597301C31.5246 -0.529141 26.4556 1.24098 23.4326 4.08008C20.4096 1.24098 15.3406 -0.529141 9.88082 0.597301C3.96125 1.8157 0.535953 6.37894 0.961242 12.4939C1.75435 23.9997 10.7889 28.7354 15.8349 29.9538L17.7774 25.4365C17.3291 25.3216 6.9268 22.6089 6.21415 12.1376C5.97277 8.60884 7.57047 6.47089 10.9498 5.76974C15.0648 4.91916 20.0303 6.75825 20.9728 9.4824H23.4441H25.9154C26.8694 6.75825 31.835 4.93066 35.9384 5.76974C38.812 6.36744 40.3982 7.62032 40.6626 10.2525C32.9959 9.11458 26.4786 11.2755 22.8234 16.3215C20.1452 20.0227 19.72 24.2641 21.7774 27.4365C23.2832 29.7584 26.1912 30.9997 29.2947 30.9997C30.1913 30.9997 31.1338 30.8963 32.1223 30.6894C40.1683 28.9882 43.6051 24.425 45.0419 20.2296C45.1224 20.0342 45.2028 19.7813 45.2833 19.4595C45.6856 18.0572 45.881 16.7238 45.9614 15.5744C46.2028 12.9997 46.0074 10.8962 45.835 9.73528" fill="#87AB8A"/>
</svg>
